<svg xmlns="http://www.w3.org/2000/svg" xmlns:xlink="http://www.w3.org/1999/xlink" width="1440" zoomAndPan="magnify" viewBox="0 0 1080 239.999995" height="320" preserveAspectRatio="xMidYMid meet" version="1.0"><path fill="#f7f5ed" d="M 0 23.996094 L 30 32.023438 C 60 39.746094 120 56.246094 180 80.023438 C 240 104.246094 300 135.746094 360 123.972656 C 420 111.746094 480 56.246094 540 47.996094 C 600 39.746094 660 80.246094 720 95.996094 C 780 111.746094 840 104.246094 900 99.972656 C 960 95.996094 1020 95.996094 1050 95.996094 L 1080 95.996094 L 1080 239.996094 L 1050 239.996094 C 1020 239.996094 960 239.996094 900 239.996094 C 840 239.996094 780 239.996094 720 239.996094 C 660 239.996094 600 239.996094 540 239.996094 C 480 239.996094 420 239.996094 360 239.996094 C 300 239.996094 240 239.996094 180 239.996094 C 120 239.996094 60 239.996094 30 239.996094 L 0 239.996094 Z M 0 23.996094 " fill-opacity="1" fill-rule="nonzero"/></svg>